<svg width="16" height="17" viewBox="0 0 16 17" fill="none" xmlns="http://www.w3.org/2000/svg">
<path d="M4.75 8.5C4.75 9.46563 3.96656 10.25 3 10.25C2.03344 10.25 1.25 9.46563 1.25 8.5C1.25 7.53438 2.03344 6.75 3 6.75C3.96656 6.75 4.75 7.53438 4.75 8.5ZM9.75 8.5C9.75 9.46563 8.96562 10.25 8 10.25C7.03438 10.25 6.25 9.46563 6.25 8.5C6.25 7.53438 7.03438 6.75 8 6.75C8.96562 6.75 9.75 7.53438 9.75 8.5ZM11.25 8.5C11.25 7.53438 12.0344 6.75 13 6.75C13.9656 6.75 14.75 7.53438 14.75 8.5C14.75 9.46563 13.9656 10.25 13 10.25C12.0344 10.25 11.25 9.46563 11.25 8.5Z" fill="#BABABA"/>
</svg>
