<svg width="20" height="21" viewBox="0 0 20 21" fill="none" xmlns="http://www.w3.org/2000/svg">
<path d="M11.3086 17.8867L10.4414 18.7539C10.0742 19.1211 9.48047 19.1211 9.11719 18.7539L1.52344 11.1641C1.15625 10.7969 1.15625 10.2031 1.52344 9.83984L9.11719 2.24609C9.48438 1.87891 10.0781 1.87891 10.4414 2.24609L11.3086 3.11328C11.6797 3.48438 11.6719 4.08984 11.293 4.45312L6.58594 8.9375H17.8125C18.332 8.9375 18.75 9.35547 18.75 9.875V11.125C18.75 11.6445 18.332 12.0625 17.8125 12.0625H6.58594L11.293 16.5469C11.6758 16.9102 11.6836 17.5156 11.3086 17.8867Z" fill="#030303"/>
</svg>
