<svg width="14" height="15" viewBox="0 0 14 15" fill="none" xmlns="http://www.w3.org/2000/svg">
<path d="M9.26527 4.9309L12.758 5.44618C13.0472 5.4875 13.2903 5.69166 13.3826 5.97118C13.475 6.25312 13.3996 6.55937 13.1906 6.7684L10.658 9.25243L11.2559 12.8156C11.3045 13.1073 11.1854 13.4038 10.9424 13.5764C10.7017 13.749 10.3833 13.7708 10.1233 13.6323L7.00242 11.9674L3.88402 13.6323C3.62152 13.7708 3.30312 13.749 3.06249 13.5764C2.82187 13.4038 2.70034 13.1073 2.75138 12.8156L3.3493 9.25243L0.816172 6.7684C0.606901 6.55937 0.532526 6.25312 0.624401 5.97118C0.716033 5.69166 0.958359 5.4875 1.24978 5.44618L4.73957 4.9309L6.30485 1.71455C6.43367 1.4468 6.70589 1.27682 7.00242 1.27682C7.30138 1.27682 7.5736 1.4468 7.70242 1.71455L9.26527 4.9309Z" fill="#161616"/>
</svg>
