<svg width="12" height="13" viewBox="0 0 12 13" fill="none" xmlns="http://www.w3.org/2000/svg">
<path d="M7.94164 4.29793L10.9354 4.73959C11.1833 4.77501 11.3916 4.95001 11.4708 5.18959C11.55 5.43126 11.4854 5.69376 11.3062 5.87293L9.13539 8.00209L9.64789 11.0563C9.68956 11.3063 9.58748 11.5604 9.37914 11.7083C9.17289 11.8563 8.89998 11.875 8.67706 11.7563L6.00206 10.3292L3.32914 11.7563C3.10414 11.875 2.83122 11.8563 2.62497 11.7083C2.41872 11.5604 2.31456 11.3063 2.35831 11.0563L2.87081 8.00209L0.699558 5.87293C0.520183 5.69376 0.456433 5.43126 0.535183 5.18959C0.613725 4.95001 0.821433 4.77501 1.07122 4.73959L4.06247 4.29793L5.40414 1.54105C5.51456 1.31155 5.74789 1.16586 6.00206 1.16586C6.25831 1.16586 6.49164 1.31155 6.60206 1.54105L7.94164 4.29793Z" fill="white"/>
</svg>
