<svg width="16" height="17" viewBox="0 0 16 17" fill="none" xmlns="http://www.w3.org/2000/svg">
<g clip-path="url(#clip0_2_321)">
<path d="M8 8.5C10.2094 8.5 12 6.70906 12 4.5C12 2.29094 10.2094 0.5 8 0.5C5.79063 0.5 4 2.29094 4 4.5C4 6.70906 5.79063 8.5 8 8.5ZM9.58438 10H6.41563C3.42531 10 1 12.425 1 15.4156C1 16.0138 1.485 16.4991 2.08312 16.4991H13.9175C14.5156 16.5 15 16.0156 15 15.4156C15 12.425 12.575 10 9.58438 10Z" fill="#1B1B1B"/>
</g>
<defs>
<clipPath id="clip0_2_321">
<rect width="16" height="16" fill="white" transform="translate(0 0.5)"/>
</clipPath>
</defs>
</svg>
