<svg width="14" height="15" viewBox="0 0 14 15" fill="none" xmlns="http://www.w3.org/2000/svg">
<path d="M9.26533 4.9309L12.758 5.44618C13.0473 5.4875 13.2903 5.69166 13.3827 5.97118C13.4751 6.25312 13.3997 6.55937 13.1907 6.7684L10.658 9.25243L11.256 12.8156C11.3046 13.1073 11.1855 13.4038 10.9424 13.5764C10.7018 13.749 10.3834 13.7708 10.1233 13.6323L7.00248 11.9674L3.88408 13.6323C3.62158 13.7708 3.30318 13.749 3.06255 13.5764C2.82193 13.4038 2.7004 13.1073 2.75144 12.8156L3.34936 9.25243L0.816233 6.7684C0.606962 6.55937 0.532587 6.25312 0.624462 5.97118C0.716094 5.69166 0.95842 5.4875 1.24984 5.44618L4.73964 4.9309L6.30491 1.71455C6.43373 1.4468 6.70596 1.27682 7.00248 1.27682C7.30144 1.27682 7.57366 1.4468 7.70248 1.71455L9.26533 4.9309Z" fill="#161616"/>
</svg>
