<svg width="16" height="17" viewBox="0 0 16 17" fill="none" xmlns="http://www.w3.org/2000/svg">
<g clip-path="url(#clip0_2_319)">
<path d="M4 1.5C4 0.947812 4.44688 0.5 5 0.5C5.55312 0.5 6 0.947812 6 1.5V2.5H10V1.5C10 0.947812 10.4469 0.5 11 0.5C11.5531 0.5 12 0.947812 12 1.5V2.5H13.5C14.3281 2.5 15 3.17156 15 4V5.5H1V4C1 3.17156 1.67156 2.5 2.5 2.5H4V1.5ZM15 15C15 15.8281 14.3281 16.5 13.5 16.5H2.5C1.67156 16.5 1 15.8281 1 15V6.5H15V15Z" fill="#1B1B1B"/>
</g>
<defs>
<clipPath id="clip0_2_319">
<rect width="16" height="16" fill="white" transform="translate(0 0.5)"/>
</clipPath>
</defs>
</svg>
