<svg width="220" height="230" xmlns="http://www.w3.org/2000/svg" xmlns:xlink="http://www.w3.org/1999/xlink" xml:space="preserve" overflow="hidden"><g transform="translate(-2704 -1475)"><g><path d="M2923 1589.19C2923 1575.62 2915.39 1563.29 2903.6 1557.1 2905.89 1552.38 2907.1 1547.16 2907.1 1541.84 2907.1 1522.54 2891.41 1506.82 2872.08 1506.82L2871.78 1506.82C2868.44 1490.69 2854.36 1479 2837.49 1479 2829.38 1479 2821.73 1481.76 2815.5 1486.78 2809.3 1481.76 2801.62 1479 2793.51 1479 2776.64 1479 2762.56 1490.69 2759.22 1506.82 2739.69 1506.55 2723.93 1522.41 2723.93 1541.84 2723.93 1547.16 2725.14 1552.35 2727.43 1557.1 2715.91 1563.16 2708 1575.25 2708 1589.19 2708 1602.19 2714.87 1613.98 2725.85 1620.44 2723.42 1625.26 2722.18 1630.61 2722.18 1636.07 2722.18 1654.93 2737.2 1670.32 2755.89 1671.03 2757.94 1687.87 2772.32 1701 2789.7 1701 2799.64 1701 2809.03 1696.56 2815.47 1689.15 2821.9 1696.52 2831.26 1701 2841.23 1701 2858.61 1701 2872.99 1687.93 2875.08 1671.13 2893.77 1670.42 2908.75 1655 2908.75 1636.14 2908.75 1630.65 2907.47 1625.33 2905.08 1620.51 2916.06 1614.05 2922.93 1602.26 2922.93 1589.26ZM2789.77 1692.51C2775.59 1692.51 2764.07 1681 2764.07 1666.82 2764.07 1652.64 2775.59 1641.12 2789.77 1641.12 2792.09 1641.12 2793.98 1639.24 2793.98 1636.91 2793.98 1634.59 2792.09 1632.7 2789.77 1632.7 2785.8 1632.7 2781.99 1633.41 2778.42 1634.69 2779.06 1629.71 2778.49 1624.59 2776.53 1619.8 2775.66 1617.65 2773.2 1616.6 2771.05 1617.48 2768.89 1618.36 2767.85 1620.81 2768.72 1622.97 2771.08 1628.8 2770.74 1635.26 2767.85 1640.79 2761.45 1646.17 2757.07 1653.89 2755.96 1662.61 2741.88 1661.93 2730.63 1650.32 2730.63 1636.07 2730.63 1630.68 2732.21 1625.5 2735.28 1621.08 2735.99 1620.04 2736.19 1618.73 2735.85 1617.51 2735.51 1616.3 2734.61 1615.33 2733.46 1614.82 2723.16 1610.44 2716.49 1600.37 2716.49 1589.19 2716.49 1573.84 2728.98 1561.37 2744.3 1561.37 2754.07 1561.37 2762.93 1566.43 2767.98 1574.54 2762.89 1577.27 2758.35 1580.94 2754.64 1585.62 2753.2 1587.44 2753.5 1590.1 2755.32 1591.55 2756.09 1592.16 2757 1592.46 2757.94 1592.46 2759.19 1592.46 2760.4 1591.92 2761.24 1590.88 2764.71 1586.5 2769.19 1583.1 2774.14 1580.91 2774.58 1580.91 2775.05 1580.81 2775.49 1580.64 2775.83 1580.5 2776.06 1580.27 2776.33 1580.07 2780.54 1578.52 2785.05 1577.74 2789.64 1577.98 2791.93 1578.04 2793.91 1576.26 2794.01 1573.94 2794.11 1571.61 2792.3 1569.66 2789.97 1569.56 2789.33 1569.56 2788.69 1569.52 2788.05 1569.52 2783.84 1569.52 2779.73 1570.2 2775.83 1571.38 2769.43 1560.09 2757.51 1553.02 2744.3 1553.02 2741.24 1553.02 2738.28 1553.46 2735.41 1554.17 2733.46 1550.4 2732.38 1546.25 2732.38 1541.94 2732.38 1527.29 2744.3 1515.34 2758.99 1515.34 2760.1 1515.34 2761.24 1515.41 2762.36 1515.54 2763.47 1515.67 2764.65 1515.37 2765.52 1514.63 2766.4 1513.92 2766.97 1512.88 2767.07 1511.73 2768.28 1498.16 2779.9 1487.52 2793.58 1487.52 2800.21 1487.52 2806.47 1489.91 2811.36 1494.32L2811.36 1533.39C2808.43 1534.6 2805.3 1535.27 2802.1 1535.27 2793.81 1535.27 2786.23 1531.1 2781.82 1524.06 2780.58 1522.11 2777.98 1521.5 2776.03 1522.75 2774.08 1523.99 2773.47 1526.59 2774.72 1528.54 2780.68 1538.04 2790.92 1543.69 2802.1 1543.69 2805.23 1543.69 2808.36 1543.19 2811.36 1542.28L2811.36 1544.13C2811.36 1544.13 2811.29 1544.3 2811.29 1544.4 2811.29 1544.5 2811.32 1544.57 2811.36 1544.67L2811.36 1589.76C2811.36 1589.76 2811.29 1589.93 2811.29 1590.03 2811.29 1590.13 2811.32 1590.2 2811.36 1590.3L2811.36 1635.4C2811.36 1635.4 2811.29 1635.57 2811.29 1635.67 2811.29 1635.77 2811.32 1635.83 2811.36 1635.94L2811.36 1680.9C2806.64 1688.14 2798.49 1692.58 2789.8 1692.58ZM2897.57 1614.82C2896.39 1615.33 2895.52 1616.3 2895.18 1617.51 2894.81 1618.73 2895.05 1620.04 2895.75 1621.08 2898.79 1625.5 2900.4 1630.68 2900.4 1636.07 2900.4 1650.72 2888.48 1662.68 2873.8 1662.68 2873.02 1662.68 2872.25 1662.64 2871.51 1662.57 2870.23 1662.44 2868.98 1662.98 2868.1 1663.92 2867.36 1664.73 2866.96 1665.81 2866.96 1666.89 2866.96 1681.03 2855.41 1692.51 2841.26 1692.51 2832.61 1692.51 2824.46 1688.07 2819.71 1680.83L2819.71 1639.81 2837.73 1639.81C2839.58 1646.44 2845.61 1651.33 2852.82 1651.33 2861.5 1651.33 2868.54 1644.25 2868.54 1635.6 2868.54 1626.94 2861.47 1619.87 2852.82 1619.87 2845.61 1619.87 2839.58 1624.79 2837.73 1631.39L2819.71 1631.39 2819.71 1594.18 2863.56 1594.18C2865.41 1600.81 2871.44 1605.69 2878.65 1605.69 2887.34 1605.69 2894.37 1598.62 2894.37 1589.97 2894.37 1581.31 2887.3 1574.24 2878.65 1574.24 2871.44 1574.24 2865.41 1579.16 2863.56 1585.76L2819.71 1585.76 2819.71 1548.54 2837.73 1548.54C2839.58 1555.18 2845.61 1560.06 2852.82 1560.06 2861.5 1560.06 2868.54 1552.99 2868.54 1544.33 2868.54 1535.68 2861.47 1528.61 2852.82 1528.61 2845.61 1528.61 2839.58 1533.52 2837.73 1540.12L2819.71 1540.12 2819.71 1494.22C2824.59 1489.81 2830.86 1487.42 2837.49 1487.42 2851.13 1487.42 2862.78 1498.06 2864 1511.63 2864.1 1512.78 2864.67 1513.82 2865.55 1514.53 2866.42 1515.24 2867.6 1515.57 2868.71 1515.44 2869.82 1515.3 2870.97 1515.24 2872.08 1515.24 2886.73 1515.24 2898.68 1527.16 2898.68 1541.84 2898.68 1547.16 2897.1 1552.32 2894.14 1556.69 2893.4 1557.77 2893.23 1559.12 2893.63 1560.36 2894.04 1561.61 2894.98 1562.59 2896.19 1563.02 2907.21 1567 2914.58 1577.51 2914.58 1589.23 2914.58 1600.95 2907.91 1610.51 2897.61 1614.85ZM2845.51 1635.6C2845.51 1631.56 2848.77 1628.29 2852.82 1628.29 2856.86 1628.29 2860.12 1631.56 2860.12 1635.6 2860.12 1639.64 2856.86 1642.91 2852.82 1642.91 2848.77 1642.91 2845.51 1639.64 2845.51 1635.6ZM2871.34 1589.97C2871.34 1585.93 2874.6 1582.66 2878.65 1582.66 2882.69 1582.66 2885.95 1585.93 2885.95 1589.97 2885.95 1594.01 2882.69 1597.27 2878.65 1597.27 2874.6 1597.27 2871.34 1594.01 2871.34 1589.97ZM2845.51 1544.33C2845.51 1540.29 2848.77 1537.03 2852.82 1537.03 2856.86 1537.03 2860.12 1540.29 2860.12 1544.33 2860.12 1548.38 2856.86 1551.64 2852.82 1551.64 2848.77 1551.64 2845.51 1548.38 2845.51 1544.33Z" stroke="#F4F8FA" stroke-width="2.29167" stroke-linecap="butt" stroke-linejoin="miter" stroke-miterlimit="8" stroke-opacity="1" fill="#3F3F3F" fill-rule="evenodd" fill-opacity="1"/></g></g></svg>