<svg width="495" height="500" xmlns="http://www.w3.org/2000/svg" xmlns:xlink="http://www.w3.org/1999/xlink" xml:space="preserve" overflow="hidden"><defs><linearGradient x1="-1.45112" y1="1.5517" x2="493.54" y2="493.543" gradientUnits="userSpaceOnUse" spreadMethod="reflect" id="fill0"><stop offset="0" stop-color="#1D428A" stop-opacity="1"/><stop offset="0.07" stop-color="#1D428A" stop-opacity="1"/><stop offset="0.94" stop-color="#7F35B2" stop-opacity="1"/><stop offset="1" stop-color="#7F35B2" stop-opacity="1"/></linearGradient><linearGradient x1="-86.4514" y1="-120.448" x2="408.54" y2="371.543" gradientUnits="userSpaceOnUse" spreadMethod="reflect" id="fill1"><stop offset="0" stop-color="#1D428A" stop-opacity="1"/><stop offset="0.07" stop-color="#1D428A" stop-opacity="1"/><stop offset="0.94" stop-color="#7F35B2" stop-opacity="1"/><stop offset="1" stop-color="#7F35B2" stop-opacity="1"/></linearGradient><linearGradient x1="-323.451" y1="-179.448" x2="171.54" y2="312.543" gradientUnits="userSpaceOnUse" spreadMethod="reflect" id="fill2"><stop offset="0" stop-color="#1D428A" stop-opacity="1"/><stop offset="0.07" stop-color="#1D428A" stop-opacity="1"/><stop offset="0.94" stop-color="#7F35B2" stop-opacity="1"/><stop offset="1" stop-color="#7F35B2" stop-opacity="1"/></linearGradient><linearGradient x1="-360.451" y1="-211.448" x2="134.54" y2="280.543" gradientUnits="userSpaceOnUse" spreadMethod="reflect" id="fill3"><stop offset="0" stop-color="#1D428A" stop-opacity="1"/><stop offset="0.07" stop-color="#1D428A" stop-opacity="1"/><stop offset="0.94" stop-color="#7F35B2" stop-opacity="1"/><stop offset="1" stop-color="#7F35B2" stop-opacity="1"/></linearGradient></defs><g transform="translate(-1952 -380)"><g><path d="M401.032 425.011C408.705 425.011 414.906 418.822 414.906 411.165 414.906 403.56 408.705 397.366 401.032 397.366 393.412 397.366 387.158 403.56 387.158 411.165 387.158 418.822 393.412 425.011 401.032 425.011M178.044 80.6425C170.424 80.6425 164.222 86.8313 164.222 94.4833 164.222 102.093 170.424 108.282 178.044 108.282 185.717 108.282 191.918 102.093 191.918 94.4833 191.918 86.8313 185.717 80.6425 178.044 80.6425M246.948 101.039 204.216 101.039C201.325 112.74 190.709 121.394 178.044 121.394 163.171 121.394 151.084 109.331 151.084 94.4833 151.084 79.5936 163.171 67.5307 178.044 67.5307 190.709 67.5307 201.325 76.1845 204.216 87.9273L246.948 87.9273 246.948 34.3212C213.896 5.55942 163.46 6.05746 130.881 35.9157 114.826 50.6113 105.014 70.5726 103.091 92.2231L110.338 116.763 97.7353 120.471 91.6286 99.7965C72.9403 101.658 55.2559 109.478 41.3708 122.27 24.2276 137.993 14.2477 159.434 13.2595 182.647 12.282 205.871 20.4226 228.072 36.1575 245.138 37.2401 246.297 38.2808 247.362 39.3054 248.374L65.6087 233.463 72.0994 244.86 42.1487 261.842C42.0382 261.937 41.9278 262.031 41.8177 262.131L41.3708 262.535C24.2276 278.264 14.2477 299.699 13.2595 322.912 12.282 346.135 20.4226 368.336 36.1943 385.44 52.4018 403.062 75.4104 413.268 99.3276 413.499L125.579 410.535 127.061 423.569 108.399 425.672C112.309 436.025 118.048 445.497 125.71 453.82 141.429 470.918 162.898 480.867 186.158 481.848 208.662 482.74 230.057 475.271 246.948 460.628L246.948 336.239 260.087 336.239 260.087 403.633 375.118 403.633C375.123 403.623 375.123 403.618 375.123 403.612 378.381 392.441 388.787 384.254 401.032 384.254 415.957 384.254 428.045 396.322 428.045 411.165 428.045 426.06 415.957 438.123 401.032 438.123 388.056 438.123 377.188 428.955 374.602 416.745L260.087 416.745 260.087 466.219 257.695 468.637C237.977 486.731 212.372 496.151 185.606 494.944 158.835 493.822 134.124 482.367 116.03 462.689 106.281 452.089 99.0913 439.927 94.6346 426.469 68.7463 425.027 44.1404 413.467 26.5189 394.314 8.37727 374.641-0.998536 349.083 0.136559 322.361 1.19303 297.354 11.3307 274.136 28.7999 256.43 28.0534 255.675 27.2915 254.883 26.5189 254.049 8.37727 234.371-0.998536 208.818 0.136559 182.096 1.26669 155.385 12.7604 130.709 32.4733 112.63 48.4764 97.882 68.8779 88.7826 90.4513 86.6583 93.5363 63.4452 104.604 42.1672 122 26.2551 141.082 8.7744 165.478 0.0417101 189.858 0.0470787 214.411 0.0470787 238.949 8.90531 257.995 26.6061L260.087 28.552 260.087 133.704 246.948 133.704Z" fill="url(#fill0)" fill-rule="evenodd" transform="matrix(1 0 0 -1 1953 879)"/><path d="M284.021 13.1338C223.427 13.1338 174.113 62.4297 174.113 123.001 174.113 183.625 223.427 232.921 284.021 232.921 344.614 232.921 393.929 183.625 393.929 123.001 393.929 62.4297 344.614 13.1338 284.021 13.1338M65.0968 60.9088C57.4374 60.9088 51.2468 67.0971 51.2468 74.7537 51.2468 82.358 57.4374 88.5987 65.0968 88.5987 72.7038 88.5987 78.8944 82.358 78.8944 74.7537 78.8944 67.0971 72.7038 60.9088 65.0968 60.9088M13.1593 236.067C13.1593 243.724 19.3499 249.912 26.9569 249.912 34.6163 249.912 40.8069 243.724 40.8069 236.067 40.8069 228.463 34.6163 222.223 26.9569 222.223 19.3499 222.223 13.1593 228.463 13.1593 236.067M284.021 246.032C234.706 246.032 192.055 216.873 172.486 174.867L32.0089 174.867 32.0089 209.642C44.4895 211.96 53.9224 222.962 53.9224 236.067 53.9224 250.961 41.8561 263.023 26.9569 263.023 12.1101 263.023 0.0437873 250.961 0.0437873 236.067 0.0437873 224.006 7.96557 213.779 18.8777 210.318 18.8831 210.318 18.888 210.318 18.8934 210.313L18.8934 161.756 167.293 161.756C163.201 149.59 160.997 136.531 160.997 123.001 160.997 107.268 163.988 92.2172 169.444 78.3723L91.7476 78.3723C90.0163 91.483 78.737 101.709 65.0968 101.709 50.1976 101.709 38.1313 89.5951 38.1313 74.7537 38.1313 59.86 50.1976 47.7981 65.0968 47.7981 76.586 47.7981 86.4489 55.0352 90.2787 65.2616L173.378 65.2616 173.378 69.3051 173.378 69.2997C193.314 28.3423 235.441 0.0231244 284.021 0.0231244 351.854 0.0231244 407.044 55.1926 407.044 123.001 407.044 190.862 351.854 246.032 284.021 246.032" fill="url(#fill1)" fill-rule="evenodd" transform="matrix(1 0 0 -1 2038 757)"/><path d="M45.0343 120.398 49.0572 120.398C56.7382 120.398 62.9039 113.423 62.9039 104.822L62.9039 88.5643C57.8355 90.3998 52.5059 91.2914 47.0194 91.2914 41.5857 91.2914 36.256 90.3998 31.1876 88.5643L31.1876 104.822C31.1876 113.423 37.3533 120.398 45.0343 120.398M81.401 45.6643C81.401 27.5183 65.9868 12.7288 47.0194 12.7288 28.1048 12.7288 12.6906 27.5183 12.6906 45.6643 12.6906 63.8627 28.1048 78.6522 47.0194 78.6522 65.9868 78.6522 81.401 63.8627 81.401 45.6643M75.5488 81.9038 75.5488 104.822C75.5488 120.398 63.6877 133.037 49.0572 133.037L45.0343 133.037C30.4038 133.037 18.5427 120.398 18.5427 104.822L18.5427 81.9038C6.94288 73.2503 0.0456687 59.8244 0.0456687 45.6643 0.0456687 20.5431 21.1553 0.0371657 47.0194 0.0371657 72.9362 0.0371657 94.0459 20.5431 94.0459 45.6643 94.0459 59.8244 87.1487 73.2503 75.5488 81.9038" fill="url(#fill2)" fill-rule="evenodd" transform="matrix(1 0 0 -1 2275 698)"/><path d="M0.045292 17.5566C0.045292 14.6876 1.41735 12.0234 3.73929 10.2302L3.73929 4.4408C3.73929 1.98158 5.79737 0.0346937 8.3304 0.0346937L11.7605 0.0346937C14.2936 0.0346937 16.3516 1.98158 16.3516 4.4408L16.3516 10.2302C18.6736 12.0234 20.0456 14.6876 20.0456 17.5566 20.0456 22.7825 15.5601 27.0349 10.0191 27.0349 4.53086 27.0349 0.045292 22.7825 0.045292 17.5566" fill="url(#fill3)" fill-rule="evenodd" transform="matrix(1 0 0 -1 2312 666)"/></g></g></svg>